<?xml version="1.0" standalone="no"?>
<!DOCTYPE svg PUBLIC "-//W3C//DTD SVG 20010904//EN"
 "http://www.w3.org/TR/2001/REC-SVG-20010904/DTD/svg10.dtd">
<svg version="1.0" xmlns="http://www.w3.org/2000/svg"
 width="2001.000000pt" height="2001.000000pt" viewBox="0 0 2001.000000 2001.000000"
 preserveAspectRatio="xMidYMid meet">
<metadata>
Created by potrace 1.11, written by Peter Selinger 2001-2013
</metadata>
<g transform="translate(0.000000,2001.000000) scale(0.100000,-0.100000)"
fill="#000000" stroke="none">
<path d="M19360 18494 c-144 -24 -239 -78 -387 -220 -50 -49 -194 -188 -318
-309 -125 -121 -260 -251 -300 -290 -85 -81 -469 -453 -601 -582 -50 -48 -193
-187 -319 -308 -125 -121 -246 -239 -269 -262 -22 -24 -45 -43 -50 -43 -5 0
-93 47 -195 104 -463 259 -931 478 -1379 645 -148 55 -501 177 -541 186 -20 5
-216 62 -256 74 -28 9 -302 79 -335 86 -8 2 -98 21 -200 43 -102 22 -203 43
-225 46 -22 4 -47 8 -55 11 -8 2 -33 6 -55 10 -22 3 -80 12 -130 20 -49 8
-108 16 -130 20 -22 3 -56 8 -76 10 -20 3 -51 7 -70 9 -76 8 -156 17 -184 21
-65 9 -124 14 -200 20 -44 3 -87 8 -95 10 -8 2 -85 7 -170 10 -85 4 -177 9
-205 11 -68 4 -724 4 -805 -1 -80 -4 -234 -15 -275 -19 -16 -2 -64 -7 -105
-10 -41 -4 -88 -9 -105 -12 -16 -2 -52 -6 -80 -9 -27 -3 -97 -12 -155 -21 -58
-9 -116 -17 -130 -19 -21 -3 -98 -16 -220 -39 -394 -73 -913 -227 -1335 -396
-384 -153 -869 -404 -1200 -619 -39 -25 -78 -50 -86 -56 -56 -35 -166 -111
-177 -122 -8 -7 -23 -18 -35 -25 -40 -21 -427 -316 -457 -348 -3 -3 -32 -28
-65 -55 -33 -28 -62 -52 -65 -55 -3 -3 -23 -20 -45 -39 -109 -93 -485 -458
-570 -555 -5 -6 -51 -56 -100 -111 -100 -110 -232 -265 -285 -335 -19 -25 -37
-47 -40 -50 -4 -3 -33 -41 -66 -85 -32 -44 -61 -82 -65 -85 -13 -12 -193 -266
-276 -390 -138 -206 -190 -292 -411 -675 -150 -259 -194 -338 -270 -475 -14
-25 -42 -76 -63 -113 -22 -38 -39 -70 -39 -71 0 -2 -47 -92 -105 -200 -100
-190 -346 -682 -425 -851 -21 -44 -66 -138 -100 -210 -34 -71 -80 -170 -102
-220 -22 -49 -60 -132 -84 -183 -24 -52 -44 -95 -44 -97 0 -2 -19 -43 -41 -92
-23 -48 -60 -128 -82 -178 -21 -49 -47 -106 -55 -125 -9 -19 -16 -37 -17 -40
-1 -3 -11 -25 -22 -50 -38 -84 -131 -294 -253 -575 -67 -154 -130 -298 -140
-320 -10 -22 -49 -110 -86 -195 -61 -141 -90 -209 -129 -295 -7 -16 -41 -93
-75 -170 -34 -77 -70 -158 -80 -180 -10 -22 -53 -116 -96 -210 -158 -350 -203
-444 -374 -785 -81 -162 -160 -317 -176 -345 -17 -27 -43 -77 -58 -110 -129
-268 -290 -572 -357 -673 -16 -24 -29 -46 -29 -49 0 -3 -15 -29 -33 -57 -19
-28 -60 -91 -92 -141 -93 -145 -373 -535 -405 -565 -3 -3 -39 -48 -80 -100
-41 -52 -85 -106 -96 -120 -12 -14 -75 -88 -140 -165 -141 -167 -284 -332
-339 -391 -5 -6 -37 -41 -70 -78 -33 -38 -69 -78 -80 -90 -11 -12 -47 -53 -80
-91 -33 -37 -67 -75 -76 -84 -8 -9 -73 -81 -144 -161 -71 -80 -141 -158 -156
-175 -96 -106 -247 -287 -271 -325 -26 -41 -64 -130 -74 -175 -15 -62 -15
-176 0 -243 38 -181 145 -309 356 -427 394 -220 795 -416 1193 -586 117 -50
226 -97 244 -105 17 -8 36 -14 43 -14 7 0 24 -6 38 -14 15 -8 72 -31 127 -51
55 -20 109 -41 120 -46 153 -69 1213 -411 1297 -419 4 0 26 -7 49 -15 23 -9
51 -17 63 -19 12 -2 84 -21 161 -41 77 -21 145 -38 150 -40 6 -1 21 -5 35 -8
28 -7 183 -45 215 -52 11 -2 139 -31 285 -64 146 -33 281 -63 300 -66 19 -3
91 -17 159 -31 115 -24 195 -39 266 -50 17 -2 50 -9 75 -14 25 -5 65 -12 90
-16 66 -10 89 -13 145 -24 28 -5 68 -12 90 -15 22 -3 81 -12 130 -20 171 -27
234 -37 257 -40 82 -10 136 -17 158 -20 14 -2 43 -7 65 -9 22 -3 56 -7 75 -10
19 -2 62 -8 95 -11 33 -4 67 -9 75 -10 8 -2 47 -6 85 -10 39 -4 82 -9 96 -11
14 -2 52 -6 85 -9 32 -3 75 -7 94 -10 44 -6 108 -13 185 -20 33 -3 78 -8 100
-10 22 -2 69 -7 105 -10 142 -11 178 -14 255 -20 44 -3 100 -8 125 -10 25 -2
90 -6 145 -10 55 -3 129 -8 165 -10 480 -30 830 -39 1470 -39 588 0 858 6
1305 29 198 10 269 14 340 19 39 3 106 8 150 11 44 3 103 8 130 10 28 2 86 7
130 10 44 3 96 8 115 10 19 3 67 7 105 10 39 3 86 8 105 10 19 2 64 7 100 10
36 3 76 8 90 10 14 2 54 7 90 10 36 3 76 8 90 10 14 2 54 7 90 10 36 4 72 8
80 10 8 1 42 6 75 9 33 4 87 11 120 16 33 5 85 12 115 15 30 3 66 8 80 10 29
5 41 7 225 35 77 11 152 23 168 25 62 11 89 15 120 20 27 5 142 25 282 50 152
28 365 72 480 102 77 19 147 36 155 38 474 101 1271 363 1710 563 171 78 216
99 372 177 549 275 1112 651 1498 1001 121 109 178 164 300 289 123 126 176
183 275 296 40 46 210 260 261 329 217 295 462 717 598 1030 15 36 37 85 48
110 11 25 27 62 34 83 7 20 20 52 28 70 60 133 189 549 251 814 8 32 63 307
68 338 20 120 36 228 41 270 4 28 8 61 11 75 2 14 7 52 10 85 5 55 9 96 20
210 11 113 19 333 19 520 0 295 -13 503 -49 776 -3 25 -8 57 -10 70 -2 13 -9
56 -16 94 -6 39 -13 84 -16 100 -25 154 -109 509 -159 670 -13 44 -26 89 -29
100 -10 44 -126 373 -155 440 -5 11 -35 81 -66 155 -60 143 -127 290 -174 380
-58 113 -112 215 -120 225 -4 6 -20 33 -35 60 -32 59 -137 236 -147 250 -5 6
-41 60 -80 120 -40 61 -75 112 -78 115 -3 3 -34 46 -70 95 -35 50 -67 92 -70
95 -3 3 -17 21 -30 40 -92 131 -340 409 -540 605 -153 150 -179 173 -408 367
-71 60 -293 221 -416 302 -289 191 -638 377 -949 505 -175 72 -549 199 -697
236 -58 14 -130 32 -160 40 -61 16 -105 26 -260 55 -58 11 -114 22 -125 24
-38 7 -110 19 -135 21 -66 7 -143 17 -160 20 -10 2 -47 6 -82 10 -35 3 -79 8
-98 10 -169 20 -548 31 -730 21 -95 -6 -234 -16 -270 -21 -19 -2 -57 -6 -85
-9 -96 -11 -140 -17 -195 -26 -30 -5 -73 -12 -95 -16 -22 -3 -42 -7 -45 -9 -3
-2 -26 -6 -50 -10 -25 -4 -119 -24 -210 -46 -691 -165 -1352 -492 -1895 -938
-248 -204 -508 -464 -681 -680 -10 -13 -30 -38 -45 -55 -197 -240 -443 -645
-587 -966 -47 -105 -147 -367 -157 -412 -2 -13 -20 -77 -39 -143 -20 -66 -38
-133 -40 -150 -3 -16 -14 -75 -25 -130 -19 -98 -23 -122 -38 -255 -15 -129 -7
-783 11 -935 2 -16 7 -61 11 -100 12 -113 13 -119 19 -150 3 -16 8 -48 10 -70
3 -22 7 -49 10 -60 2 -11 13 -70 25 -131 11 -60 37 -168 57 -240 19 -71 37
-136 39 -144 9 -41 81 -234 126 -337 215 -502 566 -926 1019 -1230 411 -276
828 -442 1646 -655 l239 -62 290 -1 c295 0 378 4 578 30 193 25 313 49 492 97
591 157 1077 467 1460 929 62 75 235 320 235 333 0 3 15 30 34 59 77 120 208
396 289 607 31 81 37 102 44 148 2 20 6 48 8 62 9 60 19 266 19 395 0 203 -11
344 -39 485 -2 14 -7 39 -11 55 -3 17 -19 74 -35 127 -125 411 -360 684 -766
891 -171 87 -219 101 -348 101 -82 0 -124 -4 -165 -18 -186 -63 -317 -189
-377 -364 -34 -99 -38 -255 -9 -342 60 -178 154 -281 341 -374 130 -65 177
-101 205 -155 20 -41 40 -109 46 -161 2 -19 7 -48 10 -64 7 -34 7 -311 -1
-378 -13 -116 -203 -479 -346 -661 -290 -367 -695 -576 -1244 -642 -27 -4 -61
-8 -75 -11 -14 -2 -119 -7 -235 -10 l-210 -6 -185 47 c-400 101 -687 193 -895
288 -105 48 -235 116 -283 148 -24 16 -45 29 -48 29 -3 0 -48 32 -100 71 -353
264 -576 646 -683 1169 -27 132 -34 182 -56 390 -13 123 -18 255 -18 460 0
282 6 348 53 545 126 531 463 1097 907 1525 157 151 185 175 306 268 329 254
656 431 1030 561 128 44 330 102 397 115 14 2 45 9 70 15 52 12 71 15 200 35
52 9 122 18 155 21 33 3 98 10 145 14 88 9 574 7 600 -2 8 -3 53 -8 100 -12
103 -7 155 -12 197 -20 18 -3 52 -8 75 -10 24 -3 54 -7 68 -10 14 -3 41 -8 60
-11 19 -3 80 -15 135 -26 55 -11 107 -21 115 -23 8 -2 44 -11 80 -20 36 -9 72
-18 80 -20 33 -7 261 -78 350 -109 216 -76 494 -202 685 -311 55 -32 109 -63
120 -69 77 -44 284 -184 380 -259 6 -4 28 -21 50 -38 317 -243 657 -597 911
-949 83 -114 154 -218 179 -261 6 -10 45 -77 88 -149 127 -212 282 -532 369
-765 126 -335 233 -726 273 -995 4 -24 8 -47 10 -50 2 -3 6 -34 10 -70 4 -36
8 -67 10 -70 2 -3 6 -43 10 -89 4 -47 8 -92 10 -102 22 -112 22 -608 0 -839
-2 -25 -7 -74 -10 -110 -11 -116 -37 -317 -60 -452 -31 -178 -118 -515 -184
-708 -46 -136 -139 -379 -160 -418 -6 -9 -38 -75 -73 -147 -34 -71 -82 -163
-105 -203 -24 -41 -43 -75 -43 -77 0 -7 -108 -176 -178 -280 -88 -128 -148
-207 -246 -323 -39 -46 -84 -100 -101 -120 -49 -61 -293 -303 -395 -393 -52
-46 -97 -86 -100 -89 -57 -62 -469 -359 -645 -467 -77 -47 -233 -138 -300
-176 -137 -76 -504 -257 -523 -257 -4 0 -20 -7 -37 -16 -85 -44 -415 -173
-650 -252 -294 -100 -854 -252 -1055 -287 -19 -3 -62 -12 -95 -20 -33 -7 -124
-25 -202 -40 -182 -33 -170 -31 -226 -39 -27 -4 -58 -9 -70 -12 -12 -2 -39 -6
-62 -9 -22 -3 -51 -8 -65 -10 -14 -3 -38 -7 -55 -9 -16 -2 -48 -7 -70 -10 -22
-4 -58 -8 -80 -11 -22 -2 -60 -7 -85 -10 -25 -3 -65 -8 -90 -11 -25 -2 -61 -6
-80 -9 -19 -2 -62 -7 -95 -10 -33 -3 -73 -8 -90 -10 -40 -6 -346 -6 -411 -1
-27 3 -88 7 -135 11 -46 3 -95 7 -109 10 -14 2 -54 7 -90 11 -36 3 -74 8 -85
10 -11 2 -40 7 -65 10 -25 3 -56 7 -70 10 -14 2 -41 7 -60 10 -19 2 -46 7 -60
10 -14 2 -38 7 -55 10 -148 25 -479 101 -590 135 -364 110 -517 160 -660 219
-11 4 -63 25 -115 45 -52 21 -120 49 -150 63 -30 13 -95 42 -144 64 -152 67
-485 239 -596 307 -8 6 -51 31 -95 57 -455 267 -941 658 -1290 1038 -113 122
-299 358 -380 481 -21 33 -69 101 -105 150 -471 640 -817 1465 -1035 2463 -19
86 -36 171 -39 187 -3 17 -10 55 -17 85 -6 30 -12 69 -14 85 -2 17 -6 44 -9
60 -23 122 -59 385 -71 520 -4 39 -8 77 -10 85 -2 8 -7 58 -11 110 -3 52 -8
106 -10 120 -18 144 -25 872 -11 1110 13 224 18 276 32 395 3 22 7 63 10 90 3
28 7 66 10 85 2 19 7 55 10 80 10 72 15 111 25 170 5 30 12 73 15 95 3 22 8
46 11 54 2 8 7 30 10 50 4 20 7 41 9 46 1 6 5 28 9 50 17 85 87 371 117 473
150 517 376 1015 674 1488 46 71 95 155 110 185 23 45 201 317 242 369 6 8 36
49 67 90 30 41 59 80 63 85 4 6 33 41 63 80 55 70 254 306 320 380 74 83 390
396 495 490 323 290 690 557 1050 765 195 113 309 172 560 290 239 113 613
248 910 329 149 41 361 91 450 106 17 3 66 12 110 20 44 8 98 17 120 20 23 3
50 7 61 9 12 2 45 7 74 11 29 4 61 8 70 10 9 2 50 6 91 10 41 4 88 9 104 10
41 5 217 17 290 20 91 5 631 5 705 0 36 -2 121 -6 190 -10 69 -3 141 -8 160
-10 19 -3 64 -7 100 -10 131 -10 455 -51 565 -71 11 -2 34 -6 50 -9 17 -3 44
-7 60 -10 17 -3 57 -10 89 -16 33 -5 62 -12 65 -14 3 -1 24 -6 45 -9 153 -24
504 -113 756 -191 41 -13 84 -25 95 -28 47 -11 332 -114 480 -172 511 -202
910 -401 1465 -733 134 -80 273 -157 309 -170 160 -58 360 -33 501 62 59 39
36 18 531 498 134 130 276 266 314 303 39 37 174 168 300 290 250 242 302 293
655 633 496 479 603 591 638 665 46 95 62 174 58 281 -8 209 -125 389 -313
483 -100 50 -235 73 -333 57z m-14794 -9357 c1 -27 13 -179 20 -262 2 -33 7
-71 9 -85 2 -14 7 -56 11 -95 3 -38 8 -79 10 -90 2 -11 6 -44 10 -73 3 -29 7
-63 10 -75 2 -12 7 -42 10 -67 3 -25 7 -56 10 -70 7 -39 11 -68 28 -170 9 -52
18 -106 21 -120 3 -13 7 -42 11 -64 3 -22 7 -43 9 -47 2 -3 6 -19 9 -35 5 -26
20 -102 31 -159 4 -17 44 -192 60 -260 3 -11 7 -29 10 -40 2 -11 20 -81 40
-155 20 -74 40 -148 45 -165 13 -49 99 -323 132 -420 214 -630 490 -1201 800
-1655 401 -589 573 -804 918 -1150 343 -344 695 -621 1210 -956 62 -40 293
-176 370 -217 41 -22 77 -42 80 -45 5 -4 -262 5 -375 13 -27 2 -108 6 -180 10
-71 4 -146 8 -165 10 -19 1 -84 6 -145 10 -60 4 -118 9 -130 10 -11 2 -60 6
-110 10 -49 3 -106 8 -125 9 -19 2 -71 7 -115 11 -44 4 -93 8 -110 10 -16 2
-57 6 -89 10 -33 3 -71 7 -85 9 -14 3 -57 7 -96 11 -38 3 -83 8 -100 10 -16 2
-52 7 -80 10 -80 10 -115 14 -200 26 -44 6 -93 13 -110 15 -115 15 -456 66
-535 80 -14 2 -54 9 -90 15 -36 6 -101 17 -145 25 -44 8 -105 19 -135 24 -30
6 -102 19 -160 30 -58 11 -118 23 -135 26 -86 15 -403 83 -600 130 -82 20
-157 37 -165 39 -124 27 -689 182 -856 235 -521 164 -737 240 -1149 406 -266
107 -727 312 -747 332 -8 8 -2 16 105 134 37 42 76 85 85 96 9 10 47 52 84 93
36 41 75 83 85 95 10 12 41 48 70 80 82 93 95 109 261 304 87 102 184 219 217
260 33 41 62 77 65 80 3 3 28 34 55 70 27 36 76 101 110 145 319 415 593 858
869 1405 57 113 189 374 293 580 104 206 231 467 282 580 52 113 106 232 121
265 40 85 63 137 190 425 162 368 163 370 169 364 3 -3 6 -15 7 -27z"/>
</g>
</svg>
